# xmcd
#
# Track frame offsets:
#	150
#	14492
#	22442
#	43818
#	59117
#	78398
#	99644
#	113236
#	129094
#	137976
#	143429
#	162016
#	183051
#	199311
#	219951
#	232441
#	249016
#
# Disc length: 3508 seconds
#
# Revision: 0
# Processed by: cddbd v1.5.2PL0 Copyright (c) Steve Scherf et al.
# Submitted via: audiograbber 1.83.01
#
DISCID=f30db211
DTITLE=Guido Toffoletti - Half 6 Half
DYEAR=1900
DGENRE=Italiana
TTITLE0=The little green light (studio)
TTITLE1=Too much (studio)
TTITLE2=It hurts me too (studio)
TTITLE3=The myth in the wrong hands (studio)
TTITLE4=You don't have to worry animore (studio)
TTITLE5=So near so far (studio)
TTITLE6=Max is still in jail (studio)
TTITLE7=No no no no (live)
TTITLE8=I'll go crazy (live)
TTITLE9=Introduction by guido (live)
TTITLE10=Forget that girl (live)
TTITLE11=No one like you (live)
TTITLE12=New tricks (live)
TTITLE13=Shame shame shame (live)
TTITLE14=Do you wanna dance (live)
TTITLE15=Going down (live)
TTITLE16=What am i livin for (live)
EXTD=
EXTT0=
EXTT1=
EXTT2=
EXTT3=
EXTT4=
EXTT5=
EXTT6=
EXTT7=
EXTT8=
EXTT9=
EXTT10=
EXTT11=
EXTT12=
EXTT13=
EXTT14=
EXTT15=
EXTT16=
PLAYORDER=
